<svg xmlns="http://www.w3.org/2000/svg" id="Capa_1" data-name="Capa 1" viewBox="0 0 53 53"><defs><style>.cls-1{fill:#fff}.cls-2{fill:#7d5786}.cls-3{fill:#8341a2}</style></defs><circle cx="26.5" cy="26.5" r="26.5" class="cls-1"/><path d="M47.9 21.3v25a1.54 1.54 0 0 1-1.5 1.5H6.6a1.54 1.54 0 0 1-1.5-1.5v-25l.3-.2.2.2h41.7l.2-.2Z" class="cls-2"/><path d="m47.6 21.1-7.1-5.5-2.2-1.7V9.6a1.54 1.54 0 0 0-1.5-1.5h-6l-3.4-2.6a1.5 1.5 0 0 0-1.8 0l-3.4 2.6H14a1.54 1.54 0 0 0-1.5 1.5v6.1l-7.1 5.5.2.2h-.4v25a1.61 1.61 0 0 0 .3.9 1.8 1.8 0 0 0 .9.6h37.8a1.54 1.54 0 0 0 1.5-1.5V22.7l1.7-1.3Z" class="cls-1"/><path d="M47.6 47.3a1.43 1.43 0 0 1-1.2.6h-2.2a1.54 1.54 0 0 0 1.5-1.5v-.6Z" class="cls-2"/><path d="M5.9 21.3v25.1H4.4V21.3h1.5zM40.5 9.6v17.1l-2.2 1.7-7.6 5.8-3.4-2.5h-1.5L22 33.9l-9.5-7.3v-17A1.54 1.54 0 0 1 14 8.1h25a1.42 1.42 0 0 1 1.5 1.5Z" class="cls-1"/><path d="M48.6 21.1V21a.1.1 0 0 0-.1-.1l-.1-.1-7.1-5.5V9.6a2.22 2.22 0 0 0-2.2-2.2h-8l-3.2-2.5a2.25 2.25 0 0 0-2.7 0L22 7.3h-8a2.22 2.22 0 0 0-2.2 2.2v5.7l-7.1 5.5a.71.71 0 0 0-.3.6v2.9a.7.7 0 0 0 1.4 0v-1.7L18 31.8a.71.71 0 1 0 .9-1.1L6.6 21.2l5.2-4v5.7a.7.7 0 1 0 1.4 0V9.6a.68.68 0 0 1 .7-.7h25a.68.68 0 0 1 .7.7v13.3a.7.7 0 0 0 1.4 0v-5.7l5.2 4-12.3 9.5a.91.91 0 0 0-.3.7.63.63 0 0 0 .5.6.62.62 0 0 0 .7-.1l12.3-9.4V46L27.8 31a2.25 2.25 0 0 0-2.7 0L5.8 46V24.2a.7.7 0 0 0-1.4 0v22.2a2.84 2.84 0 0 0 .4 1.3 2.4 2.4 0 0 0 1.7.9h39.8a2 2 0 0 0 1.7-.9 2 2 0 0 0 .4-1.3v-25c.2-.2.2-.2.2-.3ZM26.1 6a.75.75 0 0 1 .9 0l1.7 1.3h-4.3Zm0 26.2a.75.75 0 0 1 .9 0l19.3 15H6.8Z" class="cls-3"/><path d="M26.5 17.1a.7.7 0 0 0 0-1.4 4.44 4.44 0 0 0-2.4 8.2 4.36 4.36 0 0 0 5.3-.5 2.89 2.89 0 0 0 3.1 2.6 3 3 0 0 0 2.8-2.9v-2.9a8.8 8.8 0 1 0-8.8 8.8.7.7 0 1 0 0-1.4 7.4 7.4 0 1 1 7.4-7.4v2.9a1.5 1.5 0 0 1-3 0v-2.9a.7.7 0 0 0-1.4 0 2.9 2.9 0 1 1-5.8 0 2.82 2.82 0 0 1 2.8-3.1Z" class="cls-3"/><path d="M15.3 7.3h6v1.5h-6z" class="cls-1"/><path d="M15.7 7.3h-1.5v1.5h1.5a.68.68 0 0 0 .7-.7.71.71 0 0 0-.7-.8ZM21.5 7.3a.7.7 0 0 0 0 1.4h2.2V7.2h-2.2ZM18.4 8.8a.76.76 0 0 0 .5-.2.67.67 0 0 0 0-1l-.1-.1-.1-.1h-.2a.76.76 0 0 0-.5.2c-.1.1-.1.2-.2.2a.63.63 0 0 0 .2.8c.1.1.2.1.2.2Z" class="cls-3"/></svg>