<svg xmlns="http://www.w3.org/2000/svg" id="Capa_1" data-name="Capa 1" viewBox="0 0 53 53"><defs><style>.cls-1{fill:#fff}.cls-3{fill:#8341a2}</style></defs><circle cx="26.5" cy="26.5" r="26.5" class="cls-1"/><path id="Shape" d="M25.4 5.6A21.53 21.53 0 0 0 8 17.3a21.31 21.31 0 0 0 1.1 21 1.39 1.39 0 0 1 .1 1.4l-2.9 7.2a1.06 1.06 0 0 0 .1.8.78.78 0 0 0 .8.2l8.1-2.5a1.67 1.67 0 0 1 1.2.1 21.27 21.27 0 0 0 24.8-2.6 21.54 21.54 0 0 0 5.5-24.4A21.29 21.29 0 0 0 25.4 5.6Z" class="cls-1" transform="translate(-.5 -.5)"/><path d="M23.5 29.4a12 12 0 0 1-3.4-6.1 1.57 1.57 0 0 1 .4-1.3l1.7-1.7a1.38 1.38 0 0 0 .2-1.8l-3-4.8a1.43 1.43 0 0 0-1.9-.5l-4.8 2.4a1.41 1.41 0 0 0-.8 1.5A26.89 26.89 0 0 0 20 32.9 27.15 27.15 0 0 0 35.8 41a1.56 1.56 0 0 0 1.5-.8l2.4-4.8a1.54 1.54 0 0 0-.5-1.9l-4.8-3a1.38 1.38 0 0 0-1.8.2l-1.7 1.7a1.48 1.48 0 0 1-1.3.4 12.38 12.38 0 0 1-6.1-3.4Z" class="cls-1"/><path d="m39.7 34-4.8-3a1.38 1.38 0 0 0-1.8.2l4.4 2.8a1.43 1.43 0 0 1 .5 1.9l-2.4 4.8a.9.9 0 0 1-.6.6c.5.1.9.1 1.3.2a1.56 1.56 0 0 0 1.5-.8l2.4-4.8a1.34 1.34 0 0 0-.5-1.9Z" style="fill:#7d5786" transform="translate(-.5 -.5)"/><path d="m5.9 18.5 1.4.5A21 21 0 0 0 6 24.5H4.6a23.76 23.76 0 0 1 1.3-6Z" class="cls-1"/><path d="M22.8 20.8a2.13 2.13 0 0 0 .3-2.7l-3-4.8a2.21 2.21 0 0 0-2.9-.8l-4.8 2.4a2.23 2.23 0 0 0-1.2 2.2 27.14 27.14 0 0 0 8.3 16.2c6 5.9 12.1 7.8 16.2 8.3a2.23 2.23 0 0 0 2.2-1.2l2.4-4.8a2.23 2.23 0 0 0-.8-2.9l-4.8-3a2.25 2.25 0 0 0-2.7.3l-1.7 1.7a.73.73 0 0 1-.6.2 9.93 9.93 0 0 1-5.7-3.2 11.18 11.18 0 0 1-3.2-5.7c0-.2 0-.5.2-.6Zm-3.4 2.6a11.72 11.72 0 0 0 3.6 6.5 12.74 12.74 0 0 0 6.5 3.6 2.21 2.21 0 0 0 1.9-.6l1.7-1.7a.74.74 0 0 1 .9-.1l4.8 3a.91.91 0 0 1 .3 1l-2.4 4.8a.67.67 0 0 1-.7.4 26.22 26.22 0 0 1-15.4-7.9A26.22 26.22 0 0 1 12.7 17a.67.67 0 0 1 .4-.7l4.8-2.4a.37.37 0 0 1 .3-.1.6.6 0 0 1 .6.3l3 4.8a.74.74 0 0 1-.1.9L20 21.5a2.21 2.21 0 0 0-.6 1.9Z" class="cls-3"/><path d="M5.8 22.3a.7.7 0 0 1 0-1.4.7.7 0 1 1 0 1.4Z" class="cls-1"/><path d="M8 38.8 5.1 46a1.4 1.4 0 0 0 .3 1.5 1.44 1.44 0 0 0 1.5.4l8.1-2.5a.66.66 0 0 1 .6.1 22.61 22.61 0 0 0 11 2.9H28A22.13 22.13 0 0 0 46.5 36a21.9 21.9 0 0 0-1.6-22.1 22.32 22.32 0 0 0-20-9.6 21.62 21.62 0 0 0-6.1 1.4 21.94 21.94 0 0 0-5.4 3A20.4 20.4 0 0 0 9 13.1a20.58 20.58 0 0 0-3 5.4.64.64 0 0 0 0 .6.78.78 0 0 0 .4.4.75.75 0 0 0 .9-.4 21.21 21.21 0 0 1 2.8-5.1 19.92 19.92 0 0 1 4.1-4.1 18 18 0 0 1 5.1-2.8 21.71 21.71 0 0 1 5.6-1.3 20.65 20.65 0 1 1-8.7 38.5 2.25 2.25 0 0 0-1.8-.2l-7.9 2.4 2.9-7.2a2 2 0 0 0-.2-2A20.19 20.19 0 0 1 6 24.6a.752.752 0 1 0-1.5-.1 22.75 22.75 0 0 0 3.3 13.7.4.4 0 0 1 .2.6Z" class="cls-3"/><path d="M39.6 14.3a.62.62 0 0 0 .7.2c.3-.1.5-.3.5-.5a.62.62 0 0 0-.2-.7 19.54 19.54 0 0 0-11-5.9.76.76 0 0 0-.8.6.64.64 0 0 0 .6.8 18.33 18.33 0 0 1 10.2 5.5Z" class="cls-3"/><circle id="Oval" cx="26.6" cy="7.9" r=".7" class="cls-3"/></svg>