<svg xmlns="http://www.w3.org/2000/svg" xml:space="preserve" width="47.7" height="4.7" style="enable-background:new 0 0 47.7 4.7"><path d="M46.7.2c-1.7 0-2.6.9-3.4 1.6-.6.7-1.2 1.2-2.3 1.2s-1.7-.5-2.3-1.2C38 1.1 37 .2 35.3.2s-2.7.9-3.4 1.6c-.7.7-1.2 1.2-2.3 1.2s-1.7-.5-2.3-1.2c-.7-.7-1.6-1.6-3.4-1.6-1.7 0-2.7.9-3.4 1.6-.7.7-1.2 1.2-2.4 1.2-1.1 0-1.7-.5-2.3-1.2-.7-.7-1.6-1.6-3.4-1.6S9.8 1.1 9 1.8C8.3 2.5 7.8 3 6.7 3S5 2.5 4.4 1.8C3.6 1.1 2.7.2 1 .2.6.2.2.5.2 1s.4.7.8.7c1.1 0 1.7.5 2.3 1.2.7.7 1.7 1.6 3.4 1.6s2.6-.9 3.4-1.6c.7-.7 1.2-1.2 2.3-1.2s1.7.5 2.3 1.2c.7.7 1.6 1.6 3.4 1.6 1.7 0 2.6-.9 3.4-1.6.7-.7 1.2-1.2 2.3-1.2 1.1 0 1.7.5 2.3 1.2.7.7 1.6 1.6 3.4 1.6 1.7 0 2.6-.9 3.4-1.6.7-.7 1.2-1.2 2.3-1.2s1.7.5 2.3 1.2c.7.7 1.6 1.6 3.4 1.6 1.7 0 2.7-.9 3.4-1.6.7-.7 1.2-1.2 2.3-1.2.4 0 .8-.3.8-.8s-.2-.7-.7-.7z" style="fill:#fff"/></svg>