<svg xmlns="http://www.w3.org/2000/svg" data-name="Capa 1" viewBox="0 0 47.27 4.3"><path d="M46.74.21a4.46 4.46 0 0 0-3.38 1.62A3.05 3.05 0 0 1 41 3a3.05 3.05 0 0 1-2.34-1.18 4.34 4.34 0 0 0-6.76 0A3.05 3.05 0 0 1 29.58 3a3.05 3.05 0 0 1-2.34-1.18A4.46 4.46 0 0 0 23.86.21a4.52 4.52 0 0 0-3.4 1.62A3 3 0 0 1 18.13 3a3.05 3.05 0 0 1-2.34-1.18A4.46 4.46 0 0 0 12.41.21 4.5 4.5 0 0 0 9 1.83 3 3 0 0 1 6.69 3a3.05 3.05 0 0 1-2.34-1.17A4.46 4.46 0 0 0 1 .21a.75.75 0 0 0 0 1.5A3 3 0 0 1 3.3 2.9a4.5 4.5 0 0 0 3.39 1.61 4.46 4.46 0 0 0 3.38-1.61 3.06 3.06 0 0 1 2.34-1.19 3 3 0 0 1 2.33 1.19 4.5 4.5 0 0 0 3.39 1.61 4.47 4.47 0 0 0 3.38-1.61 2.91 2.91 0 0 1 4.69 0 4.35 4.35 0 0 0 6.8 0 2.9 2.9 0 0 1 4.68 0 4.35 4.35 0 0 0 6.76 0 3.06 3.06 0 0 1 2.34-1.19.75.75 0 0 0 0-1.5Z" style="fill:#8341a2" transform="translate(-.22 -.21)"/></svg>